<svg width="30" height="30" viewBox="0 0 30 30" fill="none" xmlns="http://www.w3.org/2000/svg">
<path fill-rule="evenodd" clip-rule="evenodd" d="M15.0002 -0.00012207C6.72024 -0.00012207 0.000244141 6.71988 0.000244141 14.9999C0.000244141 23.2799 6.72024 29.9999 15.0002 29.9999C23.2802 29.9999 30.0002 23.2799 30.0002 14.9999C30.0002 6.71988 23.2802 -0.00012207 15.0002 -0.00012207ZM15 4.49988C17.49 4.49988 19.5 6.50988 19.5 8.99988C19.5 11.4899 17.49 13.4999 15 13.4999C12.51 13.4999 10.5 11.4899 10.5 8.99988C10.5 6.50988 12.51 4.49988 15 4.49988ZM6.00004 20.9698C7.93504 23.8798 11.25 25.7998 15 25.7998C18.75 25.7998 22.065 23.8798 24 20.9698C23.955 17.9848 17.985 16.3498 15 16.3498C12 16.3498 6.04504 17.9848 6.00004 20.9698Z" fill="#9C9C9C"/>
</svg>
